<?xml version="1.0" encoding="UTF-8" standalone="no"?>
<!-- Created with Inkscape (http://www.inkscape.org/) -->

<svg
   width="137.5208mm"
   height="89.618889mm"
   viewBox="0 0 137.5208 89.618889"
   version="1.1"
   id="svg1"
   inkscape:version="1.4.3 (0d15f75, 2025-12-25)"
   sodipodi:docname="logo.svg"
   inkscape:export-filename="logo.svg"
   inkscape:export-xdpi="96"
   inkscape:export-ydpi="96"
   xmlns:inkscape="http://www.inkscape.org/namespaces/inkscape"
   xmlns:sodipodi="http://sodipodi.sourceforge.net/DTD/sodipodi-0.dtd"
   xmlns="http://www.w3.org/2000/svg"
   xmlns:svg="http://www.w3.org/2000/svg">
  <sodipodi:namedview
     id="namedview1"
     pagecolor="#ffffff"
     bordercolor="#000000"
     borderopacity="0.25"
     inkscape:showpageshadow="2"
     inkscape:pageopacity="0.0"
     inkscape:pagecheckerboard="0"
     inkscape:deskcolor="#d1d1d1"
     inkscape:document-units="mm"
     showgrid="true"
     showguides="true"
     inkscape:zoom="0.69733049"
     inkscape:cx="388.62491"
     inkscape:cy="353.49092"
     inkscape:window-width="2560"
     inkscape:window-height="1346"
     inkscape:window-x="-11"
     inkscape:window-y="-11"
     inkscape:window-maximized="1"
     inkscape:current-layer="layer1"
     inkscape:lockguides="false">
    <inkscape:grid
       id="grid1"
       units="mm"
       originx="-18.65572"
       originy="-27.113684"
       spacingx="0.99999998"
       spacingy="1"
       empcolor="#0099e5"
       empopacity="0.30196078"
       color="#0099e5"
       opacity="0.14901961"
       empspacing="5"
       enabled="true"
       visible="true" />
    <inkscape:page
       x="0"
       y="0"
       width="137.5208"
       height="89.618889"
       id="page2"
       margin="0"
       bleed="0" />
  </sodipodi:namedview>
  <defs
     id="defs1" />
  <g
     inkscape:label="Layer 1"
     inkscape:groupmode="layer"
     id="layer1"
     transform="translate(-18.655721,-27.113685)">
    <path
       id="path53"
       style="fill:#004455;fill-opacity:1;stroke:#004455;stroke-width:0.403663"
       d="m 34.831982,28.815812 c -5.311476,29.214926 -10.622951,58.429852 -15.934427,87.644778 5.311476,0 10.622951,0 15.934427,0 3.186886,-16.0681 6.373771,-32.136194 9.560657,-48.204291 3.186886,6.329846 6.373771,12.659692 9.560657,18.989538 3.186886,0 6.373771,0 9.560657,0 3.187058,-6.329846 6.374115,-12.659692 9.561173,-18.989538 3.186886,16.068097 6.373771,32.136191 9.560657,48.204291 6.373772,0 12.747545,0 19.121317,0 2.65582,-9.73825 5.31165,-19.476502 7.96747,-29.214753 2.65565,9.738251 5.3113,19.476503 7.96695,29.214753 5.31148,0 10.62295,0 15.93443,0 5.31165,-29.214926 10.6233,-58.429852 15.93495,-87.644778 -5.31165,0 -10.6233,0 -15.93495,0 -3.18688,16.06827 -6.37377,32.13654 -9.56065,48.20481 -3.18689,-6.329846 -6.37377,-12.659693 -9.56066,-18.989539 -3.18689,0 -6.37377,0 -9.56066,0 -3.18689,6.329846 -6.37377,12.659693 -9.560655,18.989539 -3.186886,-16.06827 -6.373771,-32.13654 -9.560657,-48.20481 -6.373943,0 -12.747887,0 -19.12183,0 -2.655652,9.738424 -5.311303,19.476847 -7.966955,29.215271 -2.655824,-9.738424 -5.311649,-19.476847 -7.967473,-29.215271 -5.311476,0 -10.622952,0 -15.934428,0 z" />
    <path
       id="path54"
       style="fill:#00222b;fill-opacity:1;stroke:#00222b;stroke-width:0.403663"
       d="m 41.205754,27.355436 c -2.124591,0.486792 -4.249181,0.973584 -6.373772,1.460376 5.311476,0 10.622952,0 15.934428,0 2.605526,9.553939 5.211051,19.107878 7.816577,28.661817 1.139948,-4.29451 2.739551,-8.589024 3.596149,-12.883531 -1.679652,-5.74622 -3.359303,-11.492441 -5.038955,-17.238662 -5.311476,0 -10.622951,0 -15.934427,0 z m 32.779911,0 c -2.428276,0.486792 -4.856551,0.973584 -7.284827,1.460376 6.263891,-0.08012 12.559532,0.159654 18.80374,-0.118775 2.23062,-0.447201 4.461241,-0.894401 6.691862,-1.341601 -6.070258,0 -12.140517,0 -18.210775,0 z m 18.210775,0 c -2.124591,0.486792 -4.249181,0.973584 -6.373772,1.460376 3.186886,15.877584 6.373771,31.755168 9.560657,47.632752 1.855702,-3.704684 3.711403,-7.409367 5.567105,-11.114051 C 98.032433,52.674821 95.114437,40.015128 92.19644,27.355436 Z m 47.8038,0 c -2.12476,0.486792 -4.24953,0.973584 -6.37429,1.460376 5.31165,0 10.6233,0 15.93495,0 -5.31165,29.214926 -10.6233,58.429852 -15.93495,87.644778 2.12476,-0.48679 4.24953,-0.97358 6.37429,-1.46037 5.31148,-29.214928 10.62295,-58.429856 15.93443,-87.644784 -5.31148,0 -10.62295,0 -15.93443,0 z M 111.31775,56.57019 c -2.12459,0.486964 -4.24918,0.973929 -6.37377,1.460893 3.18689,0 6.37377,0 9.56066,0 3.18689,6.329846 6.37377,12.659693 9.56066,18.989539 0.58572,-3.615552 1.71277,-7.312261 1.96168,-10.877317 -1.71619,-3.191038 -3.43238,-6.382077 -5.14857,-9.573115 -3.18689,0 -6.37377,0 -9.56066,0 z M 44.392639,68.256299 c -3.186886,16.068097 -6.373771,32.136191 -9.560657,48.204291 2.124591,-0.48679 4.249181,-0.97358 6.373772,-1.46037 2.655824,-12.1729 5.311648,-24.345804 7.967472,-36.518706 -1.593529,-3.408405 -3.187058,-6.81681 -4.780587,-10.225215 z m 28.682487,0 c -3.187058,6.329846 -6.374115,12.659692 -9.561173,18.989538 2.119996,-0.645086 4.64931,-0.749926 6.518442,-1.72612 1.545305,-2.833031 3.090611,-5.666063 4.635916,-8.499095 -0.531062,-2.921441 -1.062123,-5.842882 -1.593185,-8.764323 z m 36.649444,18.989538 c -2.65582,9.738251 -5.31165,19.476503 -7.96747,29.214753 2.12459,-0.48679 4.24918,-0.97358 6.37377,-1.46037 1.55253,-5.5063 3.10506,-11.0126 4.65759,-16.518893 -1.0213,-3.745163 -2.04259,-7.490327 -3.06389,-11.23549 z" />
  </g>
</svg>
